<svg width="774" height="320" viewBox="0 0 774 320" fill="none" xmlns="http://www.w3.org/2000/svg">
<path d="M219.452 303.586C217.122 303.586 215.11 303.058 213.418 302.002C211.725 300.927 210.42 299.463 209.504 297.611C208.608 295.739 208.16 293.598 208.16 291.188C208.16 288.818 208.618 286.697 209.534 284.825C210.45 282.953 211.745 281.479 213.418 280.404C215.11 279.328 217.122 278.791 219.452 278.791C221.384 278.791 223.007 279.08 224.321 279.657C225.636 280.235 226.841 281.001 227.936 281.957V270.486L223.515 270.815C223.156 270.834 222.867 270.725 222.648 270.486C222.449 270.247 222.35 269.978 222.35 269.679C222.35 269.44 222.429 269.191 222.589 268.933C222.768 268.654 223.087 268.494 223.545 268.455L229.46 267.827C229.957 267.787 230.306 267.887 230.505 268.126C230.704 268.365 230.804 268.654 230.804 268.992V300.539L235.404 300.21C235.823 300.21 236.121 300.32 236.301 300.539C236.5 300.738 236.599 300.977 236.599 301.256C236.599 301.534 236.5 301.813 236.301 302.092C236.121 302.371 235.843 302.53 235.464 302.57L229.699 303.168C228.842 303.168 228.384 302.67 228.324 301.674L228.205 299.881C227.329 300.937 226.124 301.823 224.59 302.54C223.057 303.237 221.344 303.586 219.452 303.586ZM219.512 301.136C221.523 301.136 223.216 300.728 224.59 299.911C225.964 299.075 227.08 298.039 227.936 296.804V285.094C227 283.919 225.855 282.983 224.501 282.286C223.146 281.589 221.523 281.24 219.631 281.24C217.739 281.24 216.146 281.708 214.851 282.644C213.577 283.561 212.621 284.775 211.984 286.289C211.346 287.783 211.028 289.416 211.028 291.188C211.028 292.961 211.346 294.604 211.984 296.117C212.641 297.631 213.597 298.846 214.851 299.762C216.106 300.678 217.66 301.136 219.512 301.136ZM246.039 314.131C245.621 314.131 245.302 314.002 245.083 313.743C244.884 313.484 244.785 313.195 244.785 312.876C244.785 312.578 244.884 312.299 245.083 312.04C245.283 311.801 245.581 311.681 245.98 311.681H248.668V281.927L245.442 282.555C245.342 282.575 245.243 282.595 245.143 282.615C245.044 282.634 244.944 282.644 244.844 282.644C244.486 282.644 244.197 282.535 243.978 282.316C243.779 282.077 243.679 281.808 243.679 281.509C243.679 281.27 243.749 281.031 243.888 280.792C244.048 280.533 244.307 280.364 244.665 280.284L249.564 279.299C249.843 279.259 250.022 279.239 250.102 279.239C250.839 279.239 251.227 279.627 251.267 280.404L251.357 282.465C252.313 281.489 253.538 280.633 255.031 279.896C256.545 279.159 258.248 278.791 260.14 278.791C262.49 278.791 264.491 279.328 266.144 280.404C267.817 281.459 269.092 282.923 269.968 284.795C270.864 286.647 271.312 288.778 271.312 291.188C271.312 293.558 270.854 295.679 269.938 297.551C269.042 299.423 267.747 300.897 266.055 301.973C264.362 303.048 262.35 303.586 260.02 303.586C258.088 303.586 256.465 303.297 255.151 302.719C253.856 302.142 252.651 301.375 251.536 300.419V311.681H257.989C258.407 311.681 258.716 311.801 258.915 312.04C259.134 312.279 259.243 312.548 259.243 312.847C259.243 313.165 259.124 313.454 258.885 313.713C258.666 313.992 258.327 314.131 257.869 314.131H246.039ZM259.841 301.136C261.753 301.136 263.346 300.678 264.621 299.762C265.895 298.826 266.851 297.601 267.488 296.087C268.126 294.574 268.444 292.941 268.444 291.188C268.444 289.396 268.136 287.753 267.518 286.259C266.901 284.746 265.965 283.531 264.71 282.615C263.475 281.698 261.932 281.24 260.08 281.24C258.068 281.24 256.356 281.659 254.942 282.495C253.548 283.312 252.412 284.337 251.536 285.572V297.282C252.472 298.457 253.617 299.393 254.971 300.091C256.326 300.788 257.949 301.136 259.841 301.136ZM298.079 307.38C297.72 307.38 297.412 307.21 297.153 306.872C295.022 304.064 293.449 300.947 292.433 297.521C291.437 294.096 290.939 290.272 290.939 286.05C290.939 281.828 291.437 278.004 292.433 274.579C293.449 271.153 295.022 268.036 297.153 265.228C297.412 264.89 297.72 264.72 298.079 264.72C298.437 264.72 298.756 264.87 299.035 265.168C299.334 265.467 299.483 265.776 299.483 266.095C299.483 266.254 299.423 266.413 299.304 266.573C297.432 268.783 296.038 271.631 295.121 275.116C294.205 278.582 293.747 282.226 293.747 286.05C293.747 289.874 294.205 293.528 295.121 297.014C296.038 300.479 297.432 303.317 299.304 305.528C299.423 305.667 299.483 305.826 299.483 306.005C299.483 306.324 299.334 306.633 299.035 306.932C298.756 307.23 298.437 307.38 298.079 307.38ZM332.015 303.556C330.103 303.556 328.42 303.048 326.967 302.032C325.533 301.017 324.328 299.662 323.352 297.97C322.396 296.257 321.669 294.335 321.171 292.204C320.693 290.053 320.454 287.862 320.454 285.632C320.454 283.381 320.693 281.191 321.171 279.06C321.669 276.909 322.406 274.977 323.382 273.264C324.358 271.532 325.562 270.157 326.996 269.142C328.45 268.126 330.123 267.618 332.015 267.618C333.927 267.618 335.61 268.126 337.064 269.142C338.518 270.157 339.722 271.532 340.678 273.264C341.654 274.977 342.391 276.909 342.889 279.06C343.387 281.191 343.636 283.381 343.636 285.632C343.636 287.862 343.387 290.053 342.889 292.204C342.391 294.335 341.654 296.257 340.678 297.97C339.703 299.662 338.488 301.017 337.034 302.032C335.6 303.048 333.927 303.556 332.015 303.556ZM332.015 301.017C333.967 301.017 335.59 300.27 336.885 298.776C338.179 297.282 339.145 295.371 339.782 293.04C340.439 290.69 340.768 288.231 340.768 285.662C340.768 283.073 340.439 280.603 339.782 278.253C339.125 275.883 338.149 273.951 336.855 272.458C335.56 270.944 333.947 270.187 332.015 270.187C330.083 270.187 328.47 270.944 327.176 272.458C325.881 273.951 324.915 275.883 324.278 278.253C323.641 280.603 323.322 283.073 323.322 285.662C323.322 288.231 323.641 290.69 324.278 293.04C324.935 295.371 325.901 297.282 327.176 298.776C328.47 300.27 330.083 301.017 332.015 301.017ZM357.049 303.078C356.491 303.078 356.123 302.948 355.944 302.69C355.765 302.431 355.675 302.142 355.675 301.823C355.675 301.524 355.755 301.256 355.914 301.017C356.073 300.758 356.412 300.628 356.93 300.628H359.439L367.594 290.949L360.126 282.405H357.497C356.94 282.405 356.571 282.276 356.392 282.017C356.213 281.758 356.123 281.469 356.123 281.151C356.123 280.852 356.203 280.583 356.362 280.344C356.521 280.085 356.86 279.956 357.378 279.956H364.458C364.936 279.956 365.244 280.085 365.384 280.344C365.523 280.583 365.593 280.852 365.593 281.151C365.593 281.469 365.513 281.758 365.354 282.017C365.215 282.276 364.896 282.405 364.398 282.405H363.203L369.178 289.067L374.794 282.405H373.45C372.892 282.405 372.524 282.276 372.344 282.017C372.165 281.758 372.075 281.469 372.075 281.151C372.075 280.852 372.155 280.583 372.314 280.344C372.474 280.085 372.812 279.956 373.33 279.956H381.306C381.804 279.956 382.123 280.085 382.262 280.344C382.402 280.583 382.471 280.852 382.471 281.151C382.471 281.469 382.392 281.758 382.232 282.017C382.093 282.276 381.764 282.405 381.247 282.405H378.319L370.94 291.039L379.544 300.628H381.665C382.163 300.628 382.531 300.758 382.77 301.017C383.009 301.256 383.129 301.524 383.129 301.823C383.129 302.142 382.999 302.431 382.74 302.69C382.501 302.948 382.123 303.078 381.605 303.078H373.808C373.25 303.078 372.832 302.948 372.553 302.69C372.275 302.431 372.135 302.142 372.135 301.823C372.135 301.524 372.265 301.256 372.524 301.017C372.782 300.758 373.161 300.628 373.659 300.628H376.049L369.327 292.921L362.725 300.628H364.488C364.966 300.628 365.274 300.758 365.414 301.017C365.553 301.256 365.623 301.524 365.623 301.823C365.623 302.142 365.543 302.431 365.384 302.69C365.244 302.948 364.926 303.078 364.428 303.078H357.049ZM406.968 303.586C402.985 303.586 400.037 302.371 398.125 299.941C396.233 297.511 395.287 294.315 395.287 290.352C395.287 286.568 395.855 283.202 396.99 280.255C398.125 277.287 399.609 274.638 401.441 272.308C403.273 269.978 405.225 267.877 407.296 266.005C407.575 265.766 407.854 265.646 408.133 265.646C408.491 265.646 408.81 265.796 409.089 266.095C409.367 266.373 409.507 266.682 409.507 267.021C409.507 267.28 409.387 267.519 409.148 267.738C407.615 269.012 406.081 270.546 404.548 272.338C403.034 274.131 401.72 276.132 400.605 278.343C399.489 280.533 398.752 282.893 398.394 285.423C399.549 283.889 400.953 282.764 402.606 282.047C404.279 281.31 405.932 280.942 407.565 280.942C410.931 280.942 413.56 282.007 415.452 284.138C417.344 286.269 418.29 289.027 418.29 292.413C418.29 295.819 417.244 298.537 415.153 300.569C413.082 302.58 410.353 303.586 406.968 303.586ZM406.968 301.136C408.8 301.136 410.343 300.738 411.598 299.941C412.853 299.145 413.799 298.089 414.436 296.775C415.093 295.46 415.422 294.036 415.422 292.503C415.422 290.949 415.153 289.476 414.615 288.081C414.097 286.687 413.261 285.562 412.106 284.706C410.971 283.829 409.487 283.391 407.655 283.391C405.683 283.391 403.98 283.81 402.546 284.646C401.132 285.462 400.047 286.538 399.29 287.872C398.533 289.207 398.155 290.651 398.155 292.204C398.155 293.757 398.454 295.221 399.051 296.595C399.649 297.95 400.595 299.045 401.889 299.881C403.184 300.718 404.877 301.136 406.968 301.136ZM441.949 303.586C440.575 303.586 439.281 303.397 438.066 303.018C436.851 302.64 435.766 302.122 434.81 301.465C434.272 301.086 434.003 300.648 434.003 300.15C434.003 299.812 434.123 299.533 434.362 299.314C434.601 299.075 434.879 298.955 435.198 298.955C435.457 298.955 435.696 299.035 435.915 299.194C436.911 299.931 437.976 300.439 439.111 300.718C440.267 300.997 441.342 301.136 442.338 301.136C443.812 301.136 445.285 300.788 446.759 300.091C448.253 299.393 449.497 298.348 450.493 296.954C451.489 295.54 451.987 293.787 451.987 291.696C451.987 289.724 451.648 288.131 450.971 286.916C450.294 285.701 449.418 284.825 448.342 284.287C447.267 283.73 446.132 283.451 444.937 283.451C443.423 283.451 441.959 283.839 440.545 284.616C439.151 285.373 438.136 286.379 437.498 287.633C437.359 288.071 437.01 288.291 436.453 288.291C436.194 288.291 435.945 288.211 435.706 288.052C435.467 287.872 435.347 287.613 435.347 287.275L435.945 269.888C435.945 269.012 436.373 268.494 437.229 268.335C438.106 268.176 439.032 268.096 440.008 268.096H449.687C449.965 267.041 450.195 266.334 450.374 265.975C450.573 265.617 450.852 265.437 451.21 265.437C451.569 265.437 451.877 265.517 452.136 265.676C452.415 265.836 452.555 266.085 452.555 266.423C452.555 267.578 452.355 268.554 451.957 269.351C451.559 270.147 450.991 270.546 450.254 270.546H439.201C439.042 270.546 438.962 270.625 438.962 270.785L437.917 283.899C439.072 282.943 440.267 282.246 441.501 281.808C442.756 281.35 443.981 281.121 445.176 281.121C446.908 281.121 448.512 281.539 449.985 282.376C451.459 283.212 452.634 284.397 453.51 285.931C454.407 287.444 454.855 289.217 454.855 291.248C454.855 293.757 454.277 295.938 453.122 297.79C451.967 299.642 450.414 301.076 448.462 302.092C446.51 303.088 444.339 303.586 441.949 303.586ZM480.187 303.287C479.809 303.287 479.461 303.148 479.142 302.869C478.843 302.59 478.694 302.192 478.694 301.674C478.694 297.412 479.112 293.479 479.948 289.874C480.805 286.249 481.9 282.864 483.235 279.717C484.589 276.55 486.013 273.533 487.506 270.665H472.749V275.714C472.749 276.232 472.59 276.63 472.271 276.909C471.972 277.168 471.644 277.297 471.285 277.297C470.927 277.297 470.598 277.168 470.299 276.909C470.021 276.65 469.881 276.252 469.881 275.714V269.709C469.881 268.634 470.439 268.096 471.554 268.096H489.418C489.797 268.096 490.105 268.285 490.344 268.664C490.583 269.022 490.703 269.43 490.703 269.888C490.703 270.227 490.633 270.526 490.494 270.785C488.841 273.971 487.337 277.118 485.983 280.225C484.629 283.332 483.553 286.628 482.757 290.113C481.96 293.578 481.562 297.442 481.562 301.704C481.562 302.241 481.412 302.64 481.114 302.899C480.835 303.158 480.526 303.287 480.187 303.287ZM518.097 303.586C514.114 303.586 511.166 302.371 509.254 299.941C507.362 297.511 506.416 294.315 506.416 290.352C506.416 286.568 506.984 283.202 508.119 280.255C509.254 277.287 510.738 274.638 512.57 272.308C514.403 269.978 516.354 267.877 518.425 266.005C518.704 265.766 518.983 265.646 519.262 265.646C519.62 265.646 519.939 265.796 520.218 266.095C520.497 266.373 520.636 266.682 520.636 267.021C520.636 267.28 520.517 267.519 520.278 267.738C518.744 269.012 517.211 270.546 515.677 272.338C514.164 274.131 512.849 276.132 511.734 278.343C510.619 280.533 509.882 282.893 509.523 285.423C510.678 283.889 512.082 282.764 513.735 282.047C515.408 281.31 517.061 280.942 518.694 280.942C522.06 280.942 524.689 282.007 526.581 284.138C528.473 286.269 529.419 289.027 529.419 292.413C529.419 295.819 528.373 298.537 526.282 300.569C524.211 302.58 521.483 303.586 518.097 303.586ZM518.097 301.136C519.929 301.136 521.473 300.738 522.727 299.941C523.982 299.145 524.928 298.089 525.565 296.775C526.222 295.46 526.551 294.036 526.551 292.503C526.551 290.949 526.282 289.476 525.744 288.081C525.227 286.687 524.39 285.562 523.235 284.706C522.1 283.829 520.616 283.391 518.784 283.391C516.812 283.391 515.11 283.81 513.676 284.646C512.262 285.462 511.176 286.538 510.419 287.872C509.663 289.207 509.284 290.651 509.284 292.204C509.284 293.757 509.583 295.221 510.18 296.595C510.778 297.95 511.724 299.045 513.018 299.881C514.313 300.718 516.006 301.136 518.097 301.136ZM551.645 307.38C551.286 307.38 550.958 307.23 550.659 306.932C550.38 306.633 550.241 306.324 550.241 306.005C550.241 305.826 550.3 305.667 550.42 305.528C552.312 303.317 553.706 300.479 554.602 297.014C555.518 293.528 555.976 289.874 555.976 286.05C555.976 282.226 555.518 278.582 554.602 275.116C553.706 271.631 552.312 268.783 550.42 266.573C550.3 266.413 550.241 266.254 550.241 266.095C550.241 265.776 550.38 265.467 550.659 265.168C550.958 264.87 551.286 264.72 551.645 264.72C552.003 264.72 552.312 264.89 552.571 265.228C554.702 268.036 556.265 271.153 557.261 274.579C558.277 278.004 558.785 281.828 558.785 286.05C558.785 290.272 558.277 294.096 557.261 297.521C556.265 300.947 554.702 304.064 552.571 306.872C552.312 307.21 552.003 307.38 551.645 307.38Z" fill="currentColor"/>
<path d="M86.8214 216C85.3015 216 84.1465 215.605 83.3561 214.815C82.5658 213.963 82.1707 213.052 82.1707 212.079C82.1707 211.106 82.5354 210.225 83.265 209.434C84.0553 208.583 85.2103 208.158 86.7302 208.158H101.594V117.058H87.095C85.6359 117.058 84.5416 116.663 83.8121 115.873C83.0826 115.082 82.7178 114.201 82.7178 113.228C82.7178 112.195 83.0826 111.283 83.8121 110.493C84.6024 109.641 85.7575 109.216 87.2773 109.216H119.924C130.38 109.216 139.469 111.1 147.19 114.87C154.971 118.578 161.02 124.323 165.336 132.105C169.653 139.886 171.811 149.887 171.811 162.106C171.811 181.378 167.251 195.178 158.132 203.507C149.013 211.836 136.216 216 119.741 216H86.8214ZM110.349 208.158H120.38C135.456 208.158 146.338 204.297 153.026 196.576C159.713 188.856 163.057 177.366 163.057 162.106C163.057 147.698 159.5 136.603 152.387 128.822C145.275 120.979 135.031 117.058 121.656 117.058H110.349V208.158ZM224.267 217.55C216.182 217.55 209.008 216.03 202.746 212.991C196.546 209.89 191.682 205.452 188.156 199.677C184.691 193.901 182.958 186.971 182.958 178.885C182.958 171.104 184.782 164.447 188.43 158.915C192.138 153.382 197.032 149.157 203.111 146.239C209.251 143.321 215.969 141.862 223.264 141.862C232.687 141.862 240.499 144.446 246.7 149.613C252.962 154.781 256.093 162.35 256.093 172.32C256.093 174.569 255.455 176.454 254.178 177.974C252.901 179.493 251.199 180.253 249.071 180.253H191.712C192.016 190.163 195.147 197.61 201.105 202.595C207.063 207.58 214.54 210.073 223.538 210.073C227.976 210.073 232.414 209.252 236.852 207.61C241.29 205.969 245.272 203.476 248.798 200.133C250.074 199.099 251.321 198.583 252.537 198.583C253.631 198.583 254.512 198.978 255.181 199.768C255.85 200.558 256.184 201.501 256.184 202.595C256.184 203.932 255.637 205.209 254.543 206.425C252.293 208.857 249.406 210.893 245.88 212.535C242.354 214.176 238.645 215.422 234.754 216.274C230.924 217.125 227.429 217.55 224.267 217.55ZM191.986 173.596H248.342C248.22 171.347 247.855 168.854 247.247 166.119C246.64 163.322 245.484 160.647 243.782 158.094C242.141 155.541 239.679 153.443 236.396 151.802C233.174 150.16 228.857 149.34 223.447 149.34C214.571 149.34 207.367 151.437 201.835 155.632C196.363 159.827 193.08 165.815 191.986 173.596ZM313.291 217.277C312.075 217.277 310.89 216.912 309.735 216.182C308.641 215.514 307.394 213.659 305.996 210.62L279.186 152.896H269.976C268.456 152.896 267.422 152.501 266.875 151.711C266.389 150.92 266.146 150.069 266.146 149.157C266.146 148.185 266.419 147.334 266.967 146.604C267.514 145.814 268.638 145.419 270.341 145.419H299.066C300.585 145.419 301.558 145.814 301.984 146.604C302.409 147.394 302.622 148.276 302.622 149.249C302.622 150.16 302.409 151.012 301.984 151.802C301.558 152.531 300.616 152.896 299.157 152.896H289.217L313.565 207.61L335.815 152.896H328.064C326.544 152.896 325.572 152.531 325.146 151.802C324.721 151.012 324.508 150.16 324.508 149.249C324.508 148.276 324.721 147.394 325.146 146.604C325.632 145.814 326.636 145.419 328.155 145.419H351.956C353.719 145.419 354.844 145.814 355.33 146.604C355.877 147.334 356.151 148.185 356.151 149.157C356.151 150.069 355.908 150.92 355.421 151.711C354.935 152.501 353.901 152.896 352.321 152.896H344.205L319.857 211.076C318.702 213.872 317.608 215.605 316.574 216.274C315.601 216.942 314.507 217.277 313.291 217.277ZM440.851 69.0212H500.8V80.4135H512.193V91.9925H523.772V140.176H512.193V151.755H500.8V163.334H454.671V221.229H440.851V69.0212ZM498.746 149.701V138.122H510.325V94.0468H498.746V82.4678H454.671V149.701H498.746ZM538.525 197.884H526.76V138.122H538.525V126.73H550.104V115.151H586.709V126.73H598.101V138.122H609.68V174.913H540.58V196.017H551.972V207.409H584.655V196.017H596.234V184.438H609.68V197.884H598.101V209.463H586.709V221.229H550.104V209.463H538.525V197.884ZM596.234 161.28V140.176H584.655V128.597H551.972V140.176H540.58V161.28H596.234ZM636.013 174.913H624.434V151.755H612.668V115.151H626.489V149.701H637.881V172.859H649.46V196.017H658.984V172.859H670.564V149.701H682.143V115.151H695.589V151.755H684.01V174.913H672.618V197.884H661.039V221.229H647.405V197.884H636.013V174.913Z" fill="currentColor"/>
</svg>
